<svg width="1757" height="583" viewBox="0 0 1757 583" fill="none" xmlns="http://www.w3.org/2000/svg">
<path d="M283.855 295.026L287.788 291.093L181.579 184.883L188.982 177.48C251.598 215.235 330.595 215.243 393.211 177.472L400.622 184.883L294.413 291.093L400.622 397.302L393.211 404.713C362.372 386.182 327.071 376.392 291.093 376.392C255.114 376.392 219.814 386.182 188.974 404.713L181.563 397.302L283.839 295.026L283.855 295.026ZM188.817 110.143L184.883 106.209L106.21 184.883L212.419 291.093L106.209 397.302L184.883 475.976L188.817 472.042C245.305 415.554 336.881 415.554 393.368 472.042L397.302 475.976L475.976 397.302L369.766 291.093L475.976 184.883L397.302 106.209L393.368 110.143C336.881 166.631 245.305 166.631 188.817 110.143Z" fill="#93E85F" stroke="#93E85F" stroke-width="11.1261"/>
<path d="M708.678 410.164C700.309 410.164 692.732 409.146 685.946 407.11C679.386 405.075 673.505 402.247 668.303 398.628C663.327 394.783 659.029 390.485 655.41 385.735L649.642 406.093H604.517V161.806H655.41V257.485C660.839 249.794 667.851 243.461 676.446 238.485C685.041 233.508 695.672 231.02 708.339 231.02C723.946 231.02 737.857 234.979 750.071 242.895C762.512 250.586 772.351 261.217 779.589 274.788C786.827 288.134 790.447 303.515 790.447 320.931C790.447 337.896 786.827 353.164 779.589 366.735C772.351 380.307 762.625 390.938 750.411 398.628C738.196 406.319 724.285 410.164 708.678 410.164ZM696.125 365.717C704.268 365.717 711.506 363.795 717.839 359.95C724.399 356.104 729.488 350.902 733.107 344.342C736.726 337.557 738.536 329.753 738.536 320.931C738.536 312.11 736.726 304.306 733.107 297.521C729.488 290.509 724.399 285.08 717.839 281.235C711.506 277.39 704.268 275.467 696.125 275.467C687.756 275.467 680.291 277.503 673.732 281.574C667.398 285.419 662.422 290.735 658.803 297.521C655.184 304.08 653.374 311.884 653.374 320.931C653.374 329.527 655.184 337.217 658.803 344.003C662.422 350.789 667.398 356.104 673.732 359.95C680.291 363.795 687.756 365.717 696.125 365.717ZM886.494 410.164C868.851 410.164 853.357 406.545 840.012 399.307C826.666 391.843 816.148 381.551 808.458 368.432C800.994 355.086 797.261 339.818 797.261 322.628C797.261 304.985 800.994 289.265 808.458 275.467C815.922 261.669 826.327 250.812 839.672 242.895C853.018 234.979 868.512 231.02 886.155 231.02C903.345 231.02 918.387 234.753 931.28 242.217C944.173 249.681 954.238 259.86 961.476 272.753C968.941 285.419 972.673 300.122 972.673 316.86C972.673 319.122 972.56 321.723 972.334 324.664C972.334 327.378 972.107 330.205 971.655 333.146H833.565V303.628H920.762C920.31 294.128 916.804 286.55 910.244 280.896C903.911 275.015 895.994 272.074 886.494 272.074C879.256 272.074 872.696 273.771 866.815 277.163C860.934 280.556 856.184 285.646 852.565 292.431C849.172 299.217 847.476 307.812 847.476 318.217V328.396C847.476 336.313 848.946 343.324 851.887 349.432C855.053 355.539 859.464 360.289 865.119 363.682C871 367.075 877.899 368.771 885.815 368.771C893.28 368.771 899.387 367.301 904.137 364.36C909.113 361.194 912.958 357.235 915.673 352.485H967.584C964.417 363.342 958.988 373.182 951.298 382.003C943.607 390.598 934.22 397.497 923.137 402.7C912.054 407.676 899.839 410.164 886.494 410.164ZM1061.7 406.093C1049.26 406.093 1038.29 404.17 1028.79 400.325C1019.29 396.253 1011.94 389.694 1006.74 380.646C1001.53 371.598 998.933 359.271 998.933 343.664V277.503H969.755V235.092H998.933L1004.36 186.913H1049.83V235.092H1093.59V277.503H1049.83V344.342C1049.83 351.128 1051.3 355.991 1054.24 358.932C1057.4 361.646 1062.72 363.003 1070.18 363.003H1093.59V406.093H1061.7ZM1105.58 406.093V161.806H1156.47V259.52C1161.9 250.925 1169.25 244.026 1178.52 238.824C1187.8 233.622 1198.65 231.02 1211.09 231.02C1225.57 231.02 1237.67 234.074 1247.4 240.181C1257.12 246.288 1264.48 255.223 1269.45 266.985C1274.43 278.521 1276.92 292.544 1276.92 309.056V406.093H1226.36V313.806C1226.36 301.14 1223.65 291.3 1218.22 284.288C1213.02 277.277 1204.65 273.771 1193.11 273.771C1186.33 273.771 1180.11 275.467 1174.45 278.86C1168.8 282.253 1164.39 287.116 1161.22 293.449C1158.05 299.556 1156.47 306.908 1156.47 315.503V406.093H1105.58ZM1308.58 480.736L1349.63 387.093H1339.46L1270.58 235.092H1325.88L1373.05 339.253L1412.4 235.092H1467.03L1362.53 480.736H1308.58ZM1466.02 407.789C1456.74 407.789 1449.16 405.075 1443.28 399.646C1437.63 393.991 1434.8 387.206 1434.8 379.289C1434.8 371.146 1437.63 364.36 1443.28 358.932C1449.16 353.277 1456.74 350.449 1466.02 350.449C1475.06 350.449 1482.41 353.277 1488.07 358.932C1493.72 364.36 1496.55 371.146 1496.55 379.289C1496.55 387.206 1493.72 393.991 1488.07 399.646C1482.41 405.075 1475.06 407.789 1466.02 407.789ZM1564.27 410.164C1550.02 410.164 1538.14 407.902 1528.64 403.378C1519.37 398.854 1512.47 392.747 1507.94 385.057C1503.65 377.14 1501.5 368.432 1501.5 358.932C1501.5 348.753 1503.99 339.818 1508.96 332.128C1514.16 324.211 1522.19 317.991 1533.05 313.467C1543.91 308.717 1557.59 306.342 1574.1 306.342H1615.5C1615.5 298.652 1614.48 292.318 1612.44 287.342C1610.63 282.366 1607.58 278.634 1603.28 276.146C1598.99 273.657 1593.1 272.413 1585.64 272.413C1577.72 272.413 1571.05 273.997 1565.62 277.163C1560.19 280.33 1556.8 285.306 1555.44 292.092H1506.59C1507.72 279.878 1511.68 269.247 1518.46 260.199C1525.47 251.151 1534.75 244.026 1546.28 238.824C1557.82 233.622 1571.05 231.02 1585.98 231.02C1602.27 231.02 1616.4 233.735 1628.39 239.163C1640.38 244.366 1649.65 252.056 1656.21 262.235C1663 272.413 1666.39 285.08 1666.39 300.235V406.093H1623.98L1617.87 381.325C1615.38 385.622 1612.44 389.581 1609.05 393.2C1605.66 396.593 1601.7 399.646 1597.18 402.36C1592.65 404.849 1587.68 406.771 1582.25 408.128C1576.82 409.485 1570.82 410.164 1564.27 410.164ZM1576.82 371.485C1582.25 371.485 1587 370.581 1591.07 368.771C1595.14 366.961 1598.65 364.473 1601.59 361.307C1604.53 358.14 1606.9 354.521 1608.71 350.449C1610.75 346.152 1612.22 341.515 1613.12 336.539V336.199H1580.21C1574.56 336.199 1569.81 336.991 1565.96 338.574C1562.34 339.932 1559.63 341.967 1557.82 344.682C1556.01 347.396 1555.1 350.563 1555.1 354.182C1555.1 358.027 1556.01 361.307 1557.82 364.021C1559.85 366.509 1562.46 368.432 1565.62 369.789C1569.02 370.92 1572.75 371.485 1576.82 371.485ZM1682.22 406.093V235.092H1733.11V406.093H1682.22ZM1707.67 215.413C1698.62 215.413 1691.27 212.812 1685.61 207.61C1679.96 202.407 1677.13 195.848 1677.13 187.931C1677.13 179.788 1679.96 173.115 1685.61 167.913C1691.27 162.711 1698.62 160.109 1707.67 160.109C1716.94 160.109 1724.41 162.711 1730.06 167.913C1735.94 173.115 1738.88 179.788 1738.88 187.931C1738.88 195.848 1735.94 202.407 1730.06 207.61C1724.41 212.812 1716.94 215.413 1707.67 215.413Z" fill="white"/>
</svg>
