<svg width="603" height="603" viewBox="0 0 603 603" fill="none" xmlns="http://www.w3.org/2000/svg">
<path d="M293.855 305.026L297.788 301.093L191.579 194.883L198.982 187.48C261.598 225.235 340.595 225.243 403.211 187.472L410.622 194.883L304.413 301.093L410.622 407.302L403.211 414.713C372.372 396.182 337.071 386.392 301.093 386.392C265.114 386.392 229.813 396.182 198.974 414.713L191.563 407.302L293.839 305.026H293.855ZM198.817 120.143L194.883 116.209L116.209 194.883L222.419 301.093L116.209 407.302L194.883 485.976L198.817 482.042C255.304 425.554 346.881 425.554 403.368 482.042L407.302 485.976L485.976 407.302L379.766 301.093L485.976 194.883L407.302 116.209L403.368 120.143C346.881 176.631 255.304 176.631 198.817 120.143Z" fill="#93E85F" stroke="#93E85F" stroke-width="11.1261"/>
</svg>
